<?xml version="1.0" encoding="iso-8859-1"?>
<!-- Generator: Adobe Illustrator 19.0.0, SVG Export Plug-In . SVG Version: 6.00 Build 0)  -->
<svg version="1.1" id="Capa_1" xmlns="http://www.w3.org/2000/svg" xmlns:xlink="http://www.w3.org/1999/xlink" x="0px" y="0px"
	 viewBox="0 0 368 368" style="enable-background:new 0 0 368 368;" xml:space="preserve">
<g>
	<g>
		<path d="M301.536,160.28C290.36,104.96,241.056,64,184,64c-57.064,0-106.36,40.96-117.528,96.28C29.352,163.12,0,194.168,0,232
			c0,39.696,32.304,72,72,72h224c39.704,0,72-32.304,72-72C368,194.168,338.656,163.128,301.536,160.28z M296,288H72
			c-30.88,0-56-25.12-56-56s25.12-56,55.6-56.072c0.088,0.016,0.184,0.016,0.28,0.024c0.04,0.008,0.072,0.032,0.112,0.04
			c0.064,0.008,0.12-0.016,0.184-0.008c0.32,0.04,0.632,0.096,0.952,0.096c4.168,0,8.456,0.544,12.752,1.624
			c0.312,0.136,0.64,0.248,0.976,0.336c14.08,3.84,26.352,13.312,33.664,25.968c2.2,3.816,7.088,5.136,10.928,2.92
			c3.824-2.208,5.136-7.104,2.92-10.928c-9.208-15.936-24.528-27.936-42.168-33.072c-0.368-0.168-0.752-0.304-1.152-0.408
			c-2.8-0.752-5.6-1.32-8.4-1.72C93.328,114.184,135.448,80,184,80c48.544,0,90.672,34.184,101.36,80.792
			c-2.8,0.408-5.6,0.968-8.4,1.72c-0.392,0.104-0.768,0.24-1.136,0.4c-17.64,5.136-32.968,17.144-42.184,33.08
			c-2.208,3.832-0.896,8.72,2.928,10.928c3.808,2.216,8.712,0.896,10.928-2.92c7.312-12.656,19.576-22.12,33.656-25.968
			c0.328-0.096,0.656-0.2,0.968-0.336c4.296-1.08,8.584-1.624,12.768-1.624c0.528,0,0.616,0.024,1.12-0.08c30.872,0,56,25.12,56,56
			S326.872,288,296,288z"/>
	</g>
</g>
<g>
</g>
<g>
</g>
<g>
</g>
<g>
</g>
<g>
</g>
<g>
</g>
<g>
</g>
<g>
</g>
<g>
</g>
<g>
</g>
<g>
</g>
<g>
</g>
<g>
</g>
<g>
</g>
<g>
</g>
</svg>
