<?xml version="1.0" encoding="iso-8859-1"?>
<!-- Generator: Adobe Illustrator 19.0.0, SVG Export Plug-In . SVG Version: 6.00 Build 0)  -->
<svg version="1.1" id="Capa_1" xmlns="http://www.w3.org/2000/svg" xmlns:xlink="http://www.w3.org/1999/xlink" x="0px" y="0px"
	 viewBox="0 0 368 368" style="enable-background:new 0 0 368 368;" xml:space="preserve">
<g>
	<g>
		<path d="M361.056,133.824v-0.008c-5.048-17.8-12.752-34.672-22.888-50.144c0,0,0,0,0-0.008c0,0,0-0.008-0.008-0.008
			c-0.008-0.016-0.016-0.032-0.024-0.04s-0.016-0.016-0.016-0.024c-15.544-24.08-37.016-44.48-62.104-59
			c-0.008-0.008-0.024-0.008-0.032-0.016C248.192,8.496,216.392,0,184,0C82.544,0,0,82.544,0,184s82.544,184,184,184
			c32.392,0,64.192-8.496,91.976-24.584c0.008-0.008,0.024-0.008,0.032-0.016c25.088-14.52,46.56-34.92,62.104-59
			c0.008-0.008,0.016-0.016,0.016-0.024c0.008-0.016,0.016-0.032,0.024-0.04c0,0,0-0.008,0.008-0.008c0,0,0,0,0-0.008
			c10.136-15.48,17.84-32.344,22.888-50.144c0,0,0-0.008,0.008-0.008C365.664,217.88,368,201,368,184
			S365.664,150.12,361.056,133.824z M342.416,128.008H201.648V128c0.088-0.24,0.152-0.488,0.24-0.728
			c1.776-4.928,3.8-9.752,6.024-14.488c0.56-1.192,1.192-2.36,1.784-3.536c1.856-3.712,3.848-7.344,5.976-10.912
			c0.464-0.776,0.928-1.56,1.4-2.328h109.984C333.312,106.112,338.456,116.832,342.416,128.008z M260.2,48.848
			c3.344-2.472,6.8-4.792,10.328-7.016c0.512-0.32,1.024-0.64,1.536-0.952C288.896,51.272,303.816,64.584,315.92,80h-87.752
			c0.312-0.392,0.608-0.792,0.92-1.176c2.712-3.384,5.52-6.704,8.496-9.88c0.176-0.192,0.368-0.36,0.544-0.552
			c2.848-3.008,5.832-5.88,8.904-8.672c0.808-0.736,1.616-1.464,2.432-2.176c3.288-2.88,6.648-5.672,10.16-8.288
			C259.816,49.112,260.016,48.992,260.2,48.848z M184,352c-92.64,0-168-75.36-168-168S91.36,16,184,16
			c25.032,0,49.672,5.552,72.024,16.152c-0.488,0.336-0.928,0.736-1.408,1.072c-4.376,3.064-8.648,6.272-12.728,9.696
			c-0.12,0.104-0.256,0.2-0.376,0.304c-4.12,3.472-8.032,7.176-11.824,10.984c-0.744,0.744-1.488,1.48-2.216,2.232
			c-3.592,3.736-7.024,7.616-10.28,11.64c-0.648,0.8-1.264,1.624-1.904,2.44c-3.288,4.2-6.44,8.504-9.328,12.976
			c-0.024,0.04-0.064,0.08-0.088,0.12c-0.008,0.016-0.016,0.032-0.024,0.04c0,0,0,0.008-0.008,0.008c0,0,0,0,0,0.008
			c-2.528,3.856-4.904,7.8-7.12,11.816c-2.232,4.04-4.304,8.16-6.216,12.352c-3.832,8.392-7.024,17.064-9.552,25.984
			C178.336,150.12,176,167,176,184c0,4.248,0.144,8.496,0.44,12.72c0.872,12.68,3.048,25.232,6.504,37.456c0,0,0,0.008,0.008,0.008
			c5.056,17.816,12.768,34.712,22.888,50.152c0,0,0,0.008,0.008,0.008c0.008,0.016,0.016,0.032,0.024,0.04s0.016,0.016,0.016,0.024
			c2.92,4.52,6.112,8.864,9.432,13.112c0.608,0.776,1.2,1.56,1.824,2.336c3.28,4.056,6.736,7.96,10.352,11.728
			c0.704,0.728,1.424,1.44,2.136,2.152c3.808,3.832,7.736,7.552,11.88,11.048c0.112,0.096,0.224,0.176,0.336,0.264
			c4.096,3.44,8.384,6.648,12.768,9.72c0.48,0.336,0.92,0.736,1.408,1.072C233.672,346.448,209.032,352,184,352z M272.072,327.12
			c-0.512-0.32-1.032-0.632-1.536-0.952c-3.52-2.224-6.984-4.536-10.32-7.008c-0.192-0.144-0.392-0.272-0.584-0.408
			c-3.504-2.616-6.856-5.4-10.144-8.272c-0.832-0.728-1.656-1.472-2.472-2.216c-3.016-2.744-5.952-5.576-8.752-8.528
			c-0.224-0.24-0.472-0.464-0.696-0.704c-2.952-3.144-5.728-6.432-8.424-9.792c-0.328-0.408-0.64-0.824-0.96-1.232h87.736
			C303.816,303.416,288.896,316.728,272.072,327.12z M327.056,272H217.072c-0.472-0.768-0.936-1.544-1.4-2.32
			c-2.144-3.584-4.144-7.232-6-10.96c-0.584-1.168-1.2-2.312-1.76-3.488c-2.232-4.736-4.256-9.568-6.024-14.496
			c-0.088-0.24-0.152-0.488-0.24-0.736h140.768C338.456,251.176,333.312,261.896,327.056,272z M347.2,224H196.912v0
			c-0.16-0.664-0.336-1.328-0.488-1.992c-0.944-4.072-1.752-8.184-2.384-12.312c-0.104-0.656-0.248-1.312-0.344-1.976
			c-0.672-4.736-1.096-9.504-1.368-14.296c-0.024-0.472-0.024-0.952-0.048-1.424h159.536C351.304,202.808,349.76,213.52,347.2,224z
			 M192.272,176c0.024-0.472,0.024-0.952,0.048-1.424c0.264-4.784,0.696-9.56,1.368-14.296c0.096-0.656,0.24-1.296,0.336-1.944
			c0.64-4.152,1.448-8.272,2.392-12.36c0.152-0.664,0.328-1.32,0.488-1.976h150.288c2.56,10.48,4.112,21.192,4.624,32H192.272z"/>
	</g>
</g>
<g>
</g>
<g>
</g>
<g>
</g>
<g>
</g>
<g>
</g>
<g>
</g>
<g>
</g>
<g>
</g>
<g>
</g>
<g>
</g>
<g>
</g>
<g>
</g>
<g>
</g>
<g>
</g>
<g>
</g>
</svg>
