<?xml version="1.0" encoding="iso-8859-1"?>
<!-- Generator: Adobe Illustrator 19.0.0, SVG Export Plug-In . SVG Version: 6.00 Build 0)  -->
<svg version="1.1" id="Capa_1" xmlns="http://www.w3.org/2000/svg" xmlns:xlink="http://www.w3.org/1999/xlink" x="0px" y="0px"
	 viewBox="0 0 368.008 368.008" style="enable-background:new 0 0 368.008 368.008;" xml:space="preserve">
<g>
	<g>
		<path d="M301.528,112.284c-11.176-55.32-60.472-96.28-117.528-96.28c-57.064,0-106.36,40.96-117.528,96.28
			C29.352,115.124,0,146.172,0,184.004c0,39.696,32.304,72,72,72h16c4.416,0,8-3.584,8-8c0-4.416-3.584-8-8-8H72
			c-30.88,0-56-25.12-56-56s25.12-56,55.6-56.072c0.088,0.016,0.184,0.016,0.28,0.024c0.04,0.008,0.072,0.032,0.112,0.04
			c0.064,0.008,0.12-0.016,0.176-0.008c0.32,0.04,0.632,0.096,0.952,0.096c4.168,0,8.456,0.544,12.752,1.624
			c0.312,0.136,0.64,0.248,0.976,0.336c14.08,3.84,26.352,13.312,33.664,25.968c2.208,3.824,7.096,5.136,10.928,2.92
			c3.824-2.208,5.136-7.104,2.92-10.928c-9.208-15.936-24.528-27.936-42.168-33.072c-0.368-0.168-0.752-0.304-1.152-0.408
			c-2.8-0.752-5.6-1.32-8.4-1.72c10.688-46.616,52.808-80.8,101.36-80.8c48.544,0,90.664,34.184,101.36,80.792
			c-2.8,0.408-5.608,0.968-8.4,1.72c-0.392,0.104-0.776,0.24-1.136,0.4c-17.648,5.136-32.976,17.144-42.184,33.08
			c-2.208,3.832-0.904,8.72,2.92,10.928c3.816,2.216,8.72,0.904,10.928-2.92c7.312-12.656,19.584-22.12,33.664-25.968
			c0.336-0.096,0.656-0.2,0.968-0.336c4.304-1.08,8.592-1.624,12.768-1.624c0.52,0.008,0.608,0.024,1.12-0.08
			c30.88,0,56,25.12,56,56s-25.12,56-56,56h-16c-4.416,0-8,3.584-8,8c0,4.416,3.584,8,8,8h16c39.696,0,72-32.304,72-72
			C368,146.172,338.648,115.124,301.528,112.284z"/>
	</g>
</g>
<g>
	<g>
		<path d="M202.816,208.508c-4.128-1.52-8.744,0.544-10.304,4.68l-48,128c-1.552,4.144,0.544,8.752,4.68,10.312
			c0.928,0.336,1.872,0.504,2.808,0.504c3.24,0,6.288-1.984,7.496-5.192l48-128C209.048,214.676,206.952,210.068,202.816,208.508z"
			/>
	</g>
</g>
<g>
	<g>
		<path d="M250.536,208.412c-4.208-1.416-8.728,0.872-10.12,5.056l-32,96c-1.4,4.192,0.864,8.72,5.056,10.12
			c0.84,0.288,1.696,0.416,2.528,0.416c3.352,0,6.472-2.12,7.592-5.472l32-96C256.992,214.34,254.728,209.812,250.536,208.412z"/>
	</g>
</g>
<g>
	<g>
		<path d="M155.08,208.62c-4.088-1.72-8.768,0.232-10.464,4.304l-40,96c-1.696,4.08,0.224,8.76,4.304,10.464
			c1.008,0.424,2.056,0.616,3.08,0.616c3.136,0,6.112-1.856,7.384-4.928l40-96C161.08,215.004,159.16,210.324,155.08,208.62z"/>
	</g>
</g>
<g>
</g>
<g>
</g>
<g>
</g>
<g>
</g>
<g>
</g>
<g>
</g>
<g>
</g>
<g>
</g>
<g>
</g>
<g>
</g>
<g>
</g>
<g>
</g>
<g>
</g>
<g>
</g>
<g>
</g>
</svg>
