<?xml version="1.0" encoding="iso-8859-1"?>
<!-- Generator: Adobe Illustrator 19.0.0, SVG Export Plug-In . SVG Version: 6.00 Build 0)  -->
<svg version="1.1" id="Capa_1" xmlns="http://www.w3.org/2000/svg" xmlns:xlink="http://www.w3.org/1999/xlink" x="0px" y="0px"
	 viewBox="0 0 368 368" style="enable-background:new 0 0 368 368;" xml:space="preserve">
<g>
	<g>
		<path d="M360,351.995h-56.408c-1.8-27.064-12.552-51.656-29.392-70.888l43.456-43.456c3.128-3.128,3.128-8.184,0-11.312
			c-3.128-3.128-8.184-3.128-11.312,0l-43.456,43.456c-19.232-16.84-43.824-27.592-70.888-29.392v-56.408c0-4.416-3.576-8-8-8
			s-8,3.584-8,8v56.408c-27.064,1.8-51.656,12.552-70.888,29.392l-43.456-43.456c-3.128-3.128-8.184-3.128-11.312,0
			s-3.128,8.184,0,11.312L93.8,281.107c-16.84,19.232-27.592,43.824-29.392,70.888H8c-4.424,0-8,3.584-8,8c0,4.416,3.576,8,8,8
			h63.984c0.008,0,0.016,0,0.016,0h0.016h223.96c0.008,0,0.016,0,0.016,0h0.016H360c4.424,0,8-3.584,8-8
			C368,355.579,364.424,351.995,360,351.995z M80.408,351.995c4.112-53.616,48.952-96,103.592-96s99.48,42.384,103.592,96H80.408z"
			/>
	</g>
</g>
<g>
	<g>
		<path d="M237.656,50.339L189.664,2.347c-0.736-0.744-1.624-1.328-2.608-1.736c-1.952-0.808-4.16-0.808-6.112,0
			c-0.984,0.408-1.864,0.992-2.608,1.736l-47.992,47.992c-3.128,3.128-3.128,8.184,0,11.312s8.184,3.128,11.312,0L176,27.307
			v108.688c0,4.416,3.576,8,8,8s8-3.584,8-8V27.307l34.344,34.344c1.56,1.56,3.608,2.344,5.656,2.344
			c2.048,0,4.096-0.784,5.656-2.344C240.784,58.523,240.784,53.467,237.656,50.339z"/>
	</g>
</g>
<g>
</g>
<g>
</g>
<g>
</g>
<g>
</g>
<g>
</g>
<g>
</g>
<g>
</g>
<g>
</g>
<g>
</g>
<g>
</g>
<g>
</g>
<g>
</g>
<g>
</g>
<g>
</g>
<g>
</g>
</svg>
