<?xml version="1.0" encoding="iso-8859-1"?>
<!-- Generator: Adobe Illustrator 19.0.0, SVG Export Plug-In . SVG Version: 6.00 Build 0)  -->
<svg version="1.1" id="Capa_1" xmlns="http://www.w3.org/2000/svg" xmlns:xlink="http://www.w3.org/1999/xlink" x="0px" y="0px"
	 viewBox="0 0 368 368" style="enable-background:new 0 0 368 368;" xml:space="preserve">
<g>
	<g>
		<path d="M128,201.656V40c0-22.056-17.944-40-40-40C65.944,0,48,17.944,48,40v161.656C18.672,216.608,0,246.8,0,280
			c0,48.52,39.48,88,88,88s88-39.48,88-88C176,246.8,157.328,216.608,128,201.656z M64,40c0-13.232,10.768-24,24-24s24,10.768,24,24
			v72H64V40z M88,352c-39.704,0-72-32.304-72-72c0-28.616,16.952-54.504,43.192-65.952C62.12,212.776,64,209.896,64,206.72V128h48
			v78.72c0,3.176,1.88,6.056,4.808,7.336C143.048,225.504,160,251.384,160,280C160,319.696,127.704,352,88,352z"/>
	</g>
</g>
<g>
	<g>
		<path d="M88,240c-22.056,0-40,17.944-40,40c0,22.056,17.944,40,40,40c22.056,0,40-17.944,40-40C128,257.944,110.056,240,88,240z
			 M88,304c-13.232,0-24-10.768-24-24s10.768-24,24-24s24,10.768,24,24S101.232,304,88,304z"/>
	</g>
</g>
<g>
	<g>
		<path d="M280,96c-48.52,0-88,39.48-88,88s39.48,88,88,88c48.52,0,88-39.48,88-88C368,135.48,328.52,96,280,96z M280,256
			c-39.704,0-72-32.304-72-72s32.296-72,72-72c39.704,0,72,32.304,72,72S319.704,256,280,256z"/>
	</g>
</g>
<g>
	<g>
		<path d="M312,176h-64c-4.424,0-8,3.584-8,8s3.576,8,8,8h64c4.424,0,8-3.584,8-8C320,179.584,316.424,176,312,176z"/>
	</g>
</g>
<g>
</g>
<g>
</g>
<g>
</g>
<g>
</g>
<g>
</g>
<g>
</g>
<g>
</g>
<g>
</g>
<g>
</g>
<g>
</g>
<g>
</g>
<g>
</g>
<g>
</g>
<g>
</g>
<g>
</g>
</svg>
