<?xml version="1.0" encoding="iso-8859-1"?>
<!-- Generator: Adobe Illustrator 19.0.0, SVG Export Plug-In . SVG Version: 6.00 Build 0)  -->
<svg version="1.1" id="Capa_1" xmlns="http://www.w3.org/2000/svg" xmlns:xlink="http://www.w3.org/1999/xlink" x="0px" y="0px"
	 viewBox="0 0 368 368" style="enable-background:new 0 0 368 368;" xml:space="preserve">
<g>
	<g>
		<path d="M360,96c-27.296,0-40.68-7.296-54.848-15.024C289.84,72.632,274.024,64,242.64,64s-47.2,8.632-62.504,16.976
			C165.96,88.704,152.576,96,125.28,96C98,96,84.632,88.704,70.472,80.976C55.176,72.632,39.36,64,8,64c-4.424,0-8,3.584-8,8
			s3.576,8,8,8c27.28,0,40.648,7.296,54.808,15.024C78.104,103.368,93.92,112,125.28,112c31.384,0,47.2-8.632,62.504-16.976
			C201.96,87.296,215.344,80,242.64,80s40.68,7.296,54.848,15.024C312.8,103.368,328.616,112,360,112c4.424,0,8-3.584,8-8
			S364.424,96,360,96z"/>
	</g>
</g>
<g>
	<g>
		<path d="M360,160c-27.296,0-40.68-7.296-54.848-15.024C289.84,136.632,274.024,128,242.64,128s-47.2,8.632-62.504,16.976
			C165.96,152.704,152.576,160,125.28,160c-27.28,0-40.648-7.296-54.808-15.024C55.176,136.632,39.36,128,8,128
			c-4.424,0-8,3.584-8,8s3.576,8,8,8c27.28,0,40.648,7.296,54.808,15.024C78.104,167.368,93.92,176,125.28,176
			c31.384,0,47.2-8.632,62.504-16.976C201.96,151.296,215.344,144,242.64,144s40.68,7.296,54.848,15.024
			C312.8,167.368,328.616,176,360,176c4.424,0,8-3.584,8-8S364.424,160,360,160z"/>
	</g>
</g>
<g>
	<g>
		<path d="M360,288c-27.296,0-40.68-7.296-54.848-15.024C289.84,264.632,274.024,256,242.64,256s-47.2,8.632-62.504,16.976
			C165.96,280.704,152.576,288,125.28,288c-27.28,0-40.648-7.296-54.808-15.024C55.176,264.632,39.36,256,8,256
			c-4.424,0-8,3.584-8,8c0,4.416,3.576,8,8,8c27.28,0,40.648,7.296,54.808,15.024C78.104,295.368,93.92,304,125.28,304
			c31.384,0,47.2-8.632,62.504-16.976C201.96,279.296,215.344,272,242.64,272s40.68,7.296,54.848,15.024
			C312.8,295.368,328.616,304,360,304c4.424,0,8-3.584,8-8C368,291.584,364.424,288,360,288z"/>
	</g>
</g>
<g>
	<g>
		<path d="M360,224c-27.296,0-40.68-7.296-54.848-15.024C289.84,200.632,274.024,192,242.64,192s-47.2,8.632-62.504,16.976
			C165.96,216.704,152.576,224,125.28,224c-27.28,0-40.648-7.296-54.808-15.024C55.176,200.632,39.36,192,8,192
			c-4.424,0-8,3.584-8,8c0,4.416,3.576,8,8,8c27.28,0,40.648,7.296,54.808,15.024C78.104,231.368,93.92,240,125.28,240
			c31.384,0,47.2-8.632,62.504-16.976C201.96,215.296,215.344,208,242.64,208s40.68,7.296,54.848,15.024
			C312.8,231.368,328.616,240,360,240c4.424,0,8-3.584,8-8C368,227.584,364.424,224,360,224z"/>
	</g>
</g>
<g>
</g>
<g>
</g>
<g>
</g>
<g>
</g>
<g>
</g>
<g>
</g>
<g>
</g>
<g>
</g>
<g>
</g>
<g>
</g>
<g>
</g>
<g>
</g>
<g>
</g>
<g>
</g>
<g>
</g>
</svg>
