<?xml version="1.0" encoding="iso-8859-1"?>
<!-- Generator: Adobe Illustrator 19.0.0, SVG Export Plug-In . SVG Version: 6.00 Build 0)  -->
<svg version="1.1" id="Capa_1" xmlns="http://www.w3.org/2000/svg" xmlns:xlink="http://www.w3.org/1999/xlink" x="0px" y="0px"
	 viewBox="0 0 368 368" style="enable-background:new 0 0 368 368;" xml:space="preserve">
<g>
	<g>
		<path d="M301.536,112.28C290.36,56.96,241.056,16,184,16c-57.056,0-106.36,40.96-117.536,96.28C29.344,115.128,0,146.168,0,184
			c0,39.696,32.296,72,72,72h16c4.424,0,8-3.584,8-8c0-4.416-3.576-8-8-8H72c-30.872,0-56-25.12-56-56s25.128-56,55.576-56.072
			c0.096,0.016,0.2,0.016,0.304,0.032c0.04,0.008,0.064,0.032,0.104,0.04c0.064,0.008,0.12-0.016,0.184-0.008
			c0.32,0.04,0.632,0.088,0.952,0.088c4.168,0,8.464,0.544,12.76,1.624c0.312,0.136,0.64,0.248,0.976,0.336
			c14.08,3.84,26.352,13.312,33.672,25.968c2.192,3.824,7.08,5.136,10.928,2.92c3.824-2.216,5.136-7.104,2.912-10.928
			c-9.352-16.176-24.296-27.888-42.168-33.08c-0.368-0.16-0.752-0.296-1.152-0.4c-2.8-0.752-5.6-1.32-8.4-1.728
			C93.328,66.184,135.456,32,184,32s90.672,34.184,101.352,80.792c-2.8,0.408-5.608,0.968-8.4,1.728
			c-0.392,0.104-0.768,0.24-1.136,0.4c-17.64,5.136-32.968,17.144-42.184,33.08c-2.208,3.832-0.896,8.72,2.928,10.928
			c3.816,2.216,8.712,0.904,10.928-2.92c7.312-12.656,19.576-22.12,33.656-25.968c0.328-0.096,0.656-0.2,0.968-0.336
			c4.296-1.08,8.584-1.624,12.768-1.624c0.512,0.008,0.608,0.024,1.12-0.08c30.872,0,56,25.12,56,56s-25.128,56-56,56h-16
			c-4.424,0-8,3.584-8,8c0,4.416,3.576,8,8,8h16c39.704,0,72-32.304,72-72C368,146.168,338.656,115.128,301.536,112.28z"/>
	</g>
</g>
<g>
	<g>
		<path d="M184,176c-4.424,0-8,3.584-8,8v48c0,4.416,3.576,8,8,8s8-3.584,8-8v-48C192,179.584,188.424,176,184,176z"/>
	</g>
</g>
<g>
	<g>
		<path d="M136,224c-4.424,0-8,3.584-8,8v48c0,4.416,3.576,8,8,8s8-3.584,8-8v-48C144,227.584,140.424,224,136,224z"/>
	</g>
</g>
<g>
	<g>
		<path d="M232,224c-4.424,0-8,3.584-8,8v48c0,4.416,3.576,8,8,8s8-3.584,8-8v-48C240,227.584,236.424,224,232,224z"/>
	</g>
</g>
<g>
	<g>
		<circle cx="136" cy="336" r="16"/>
	</g>
</g>
<g>
	<g>
		<circle cx="232" cy="336" r="16"/>
	</g>
</g>
<g>
	<g>
		<circle cx="184" cy="288" r="16"/>
	</g>
</g>
<g>
</g>
<g>
</g>
<g>
</g>
<g>
</g>
<g>
</g>
<g>
</g>
<g>
</g>
<g>
</g>
<g>
</g>
<g>
</g>
<g>
</g>
<g>
</g>
<g>
</g>
<g>
</g>
<g>
</g>
</svg>
